<svg xmlns="http://www.w3.org/2000/svg" width="32" height="32" viewBox="0 0 32 32"><g transform="translate(0 -1020.362)"><path style="isolation:auto;mix-blend-mode:normal" fill="#78c8f0" d="m 11.84492,1035.5017 -0.0176,0.057 c 1.11032,0.9994 2.56876,1.6133 4.17187,1.6133 0.25987,0 0.51396,-0.022 0.76563,-0.053 l -4.91993,-1.6172 z m -0.83593,2.5879 -3.84766,11.9043 c 1.48155,0.4872 2.36256,-1.7266 3.56836,-1.3301 1.04842,0.3449 0.79166,2.7627 2.10742,3.1954 l 3.94922,-12.211 c -0.23039,-0.086 -0.4856,-0.1523 -0.78711,-0.1523 -0.73256,0 -1.23919,0.3549 -1.59766,0.5742 -0.35848,0.2195 -0.51711,0.3252 -0.91992,0.2168 -0.40281,-0.1085 -0.48816,-0.2803 -0.68945,-0.6504 -0.20129,-0.3701 -0.46518,-0.9308 -1.09961,-1.2988 -0.2351,-0.1364 -0.46296,-0.2035 -0.68359,-0.2481 z" color="#000" overflow="visible"/><path style="isolation:auto;mix-blend-mode:normal" fill="#4bbfeb" d="m 20.21211,1035.5232 -4.99219,1.5938 c 0.2562,0.032 0.51455,0.055 0.7793,0.055 1.62212,0 3.09746,-0.6279 4.21289,-1.6485 z m 0.87305,2.5469 c -0.24801,0.04 -0.50881,0.1116 -0.77735,0.2676 -0.63442,0.368 -0.89832,0.9287 -1.09961,1.2988 -0.20129,0.3701 -0.28663,0.5419 -0.68945,0.6504 -0.40281,0.1084 -0.56339,3e-4 -0.92187,-0.2168 -0.35846,-0.2193 -0.86509,-0.5742 -1.59766,-0.5742 -0.2618,0 -0.48572,0.053 -0.69336,0.1211 l 3.8418,12.2343 c 1.31939,-0.4214 1.0815,-2.8419 2.13281,-3.1777 1.20912,-0.3861 2.07297,1.8339 3.55859,1.3594 -0.57158,-1.8209 -2.80951,-8.9544 -3.7539,-11.9629 z" color="#000" overflow="visible"/><path style="line-height:normal;text-indent:0;text-align:start;text-decoration-line:none;text-decoration-style:solid;text-decoration-color:#000;text-transform:none;block-progression:tb;isolation:auto;mix-blend-mode:normal" fill="#373748" d="m 13.223412,1020.4262 c -0.715872,0.1927 -1.084774,0.73 -1.307317,1.1392 -0.222535,0.4092 -0.353663,0.6967 -0.722229,0.9105 -0.368567,0.2138 -0.682936,0.1839 -1.146824,0.173 -0.4638885,-0.011 -1.1100917,0.041 -1.6341466,0.5674 -0.5240624,0.5266 -0.5755185,1.1775 -0.5646565,1.6436 0.010862,0.4661 0.040624,0.782 -0.17217,1.1524 -0.2127939,0.3704 -0.5003663,0.5021 -0.9075322,0.7257 -0.4071733,0.2237 -0.9404168,0.5929 -1.1322339,1.3122 -0.1918096,0.7194 0.08694,1.3085 0.3282935,1.7067 0.2413458,0.3982 0.4231226,0.6558 0.4231226,1.0834 0,0.4277 -0.1817768,0.6868 -0.4231226,1.085 -0.2413531,0.3982 -0.5201031,0.9873 -0.3282935,1.7067 0.1918171,0.7193 0.7250606,1.0885 1.1322339,1.3121 0.4071659,0.2237 0.6947458,0.3555 0.9075322,0.7258 0.2128014,0.3704 0.1830319,0.6863 0.17217,1.1524 -0.010862,0.4661 0.040616,1.1155 0.5646565,1.6421 0.5240624,0.5266 1.1702656,0.5784 1.6341466,0.5674 0.463881,-0.011 0.778257,-0.041 1.146824,0.173 0.368551,0.2138 0.499694,0.5028 0.722229,0.912 0.222543,0.4091 0.591453,0.9464 1.307317,1.1392 0.715872,0.1927 1.300579,-0.087 1.696891,-0.3299 0.396303,-0.2425 0.654121,-0.4267 1.079702,-0.4267 0.425588,0 0.683398,0.1842 1.079702,0.4267 0.396304,0.2425 0.981018,0.5226 1.69689,0.3299 0.715865,-0.1928 1.084782,-0.7301 1.307318,-1.1392 0.222535,-0.4092 0.353677,-0.6982 0.722229,-0.912 0.368566,-0.2138 0.682942,-0.1839 1.146823,-0.173 0.463881,0.011 1.110085,-0.041 1.634147,-0.5674 0.52404,-0.5266 0.575519,-1.176 0.564657,-1.6421 -0.01086,-0.4661 -0.04063,-0.782 0.17217,-1.1524 0.212786,-0.3703 0.500366,-0.5021 0.907532,-0.7258 0.407173,-0.2236 0.940417,-0.5928 1.132234,-1.3121 0.191809,-0.7194 -0.08694,-1.3085 -0.328294,-1.7067 -0.241346,-0.3982 -0.423122,-0.6573 -0.423122,-1.085 0,-0.4276 0.181776,-0.6852 0.423122,-1.0834 0.241353,-0.3982 0.520103,-0.9873 0.328294,-1.7067 -0.191817,-0.7193 -0.725061,-1.0885 -1.132234,-1.3122 -0.407166,-0.2236 -0.694739,-0.3553 -0.907532,-0.7257 -0.212794,-0.3704 -0.183032,-0.6863 -0.17217,-1.1524 0.01086,-0.4661 -0.04059,-1.117 -0.564657,-1.6436 -0.524055,-0.5266 -1.170258,-0.5783 -1.634147,-0.5674 -0.463888,0.011 -0.778257,0.041 -1.146823,-0.173 -0.368566,-0.2138 -0.499694,-0.5013 -0.722229,-0.9105 -0.222543,-0.4092 -0.591446,-0.9465 -1.307318,-1.1392 -0.715879,-0.1928 -1.300579,0.087 -1.69689,0.3299 -0.396311,0.2425 -0.654129,0.4266 -1.079702,0.4266 -0.425573,0 -0.683399,-0.1841 -1.079702,-0.4266 -0.396312,-0.2426 -0.981011,-0.5227 -1.696891,-0.3299 z m 0.258259,0.9691 c 0.402803,-0.1084 0.562199,-0 0.920665,0.2171 0.358466,0.2193 0.865093,0.5732 1.597669,0.5732 0.732568,0 1.239202,-0.3539 1.597668,-0.5732 0.358467,-0.2195 0.517862,-0.3255 0.920666,-0.2171 0.402803,0.1085 0.488847,0.2809 0.690136,0.651 0.20129,0.3701 0.464262,0.9309 1.09867,1.2991 0.634422,0.3679 1.249578,0.3162 1.669167,0.3064 0.41959,-0.01 0.611197,-0.022 0.906076,0.2741 0.294871,0.2963 0.281208,0.4889 0.271384,0.9105 -0.0098,0.4217 -0.05988,1.0384 0.306405,1.6758 0.366281,0.6375 0.924438,0.9033 1.292728,1.1056 0.36829,0.2022 0.539885,0.2872 0.647817,0.6919 0.107939,0.4049 9.04e-4,0.565 -0.217396,0.9252 -0.218307,0.3602 -0.569034,0.8693 -0.569034,1.6054 0,0.7362 0.350727,1.2468 0.569034,1.607 0.2183,0.3602 0.325335,0.5204 0.217396,0.9251 -0.107932,0.4048 -0.279527,0.4898 -0.647817,0.692 -0.36829,0.2023 -0.926447,0.4666 -1.292728,1.1041 -0.366273,0.6375 -0.316229,1.2556 -0.306405,1.6773 0.0098,0.4216 0.02351,0.6142 -0.271384,0.9104 -0.294871,0.2963 -0.486479,0.2841 -0.906076,0.2743 -0.419596,-0.01 -1.034745,-0.062 -1.669167,0.3064 -0.634423,0.368 -0.897373,0.9289 -1.09867,1.299 -0.201289,0.37 -0.287318,0.5425 -0.690136,0.651 -0.402811,0.1084 -0.562192,0 -0.920666,-0.2171 -0.358466,-0.2193 -0.865107,-0.5732 -1.597668,-0.5732 -0.732561,0 -1.239195,0.3539 -1.597669,0.5732 -0.358474,0.2195 -0.517855,0.3255 -0.920665,0.2171 -0.402811,-0.1085 -0.488847,-0.281 -0.690137,-0.651 -0.201297,-0.3701 -0.464247,-0.931 -1.098669,-1.299 -0.634423,-0.3681 -1.249571,-0.3163 -1.669168,-0.3064 -0.4195965,0.01 -0.6112044,0.022 -0.9060754,-0.2743 -0.2948935,-0.2962 -0.2812077,-0.4888 -0.2713842,-0.9104 0.00982,-0.4217 0.059868,-1.0398 -0.3064052,-1.6773 -0.3662805,-0.6375 -0.9244377,-0.9018 -1.2927277,-1.1041 -0.36829,-0.2022 -0.5398847,-0.2872 -0.6478168,-0.692 -0.1079396,-0.4047 -9.039e-4,-0.5649 0.2173957,-0.9251 0.218307,-0.3602 0.5690341,-0.8708 0.5690341,-1.607 0,-0.7361 -0.3507271,-1.2452 -0.5690341,-1.6054 -0.2182996,-0.3602 -0.3253353,-0.5203 -0.2173957,-0.9252 0.1079321,-0.4047 0.2795268,-0.4897 0.6478168,-0.6919 0.36829,-0.2023 0.9264472,-0.4681 1.2927277,-1.1056 0.3662878,-0.6374 0.3162288,-1.2541 0.3064052,-1.6758 -0.00982,-0.4216 -0.023487,-0.6142 0.2713842,-0.9105 0.2948785,-0.2963 0.4864864,-0.284 0.9060754,-0.2741 0.419589,0.01 1.034745,0.062 1.669168,-0.3064 0.634407,-0.3682 0.89738,-0.929 1.098669,-1.2991 0.20129,-0.3701 0.287326,-0.5425 0.690137,-0.651 z" color="#000" font-family="sans-serif" font-weight="400" overflow="visible"/><path style="line-height:normal;text-indent:0;text-align:start;text-decoration-line:none;text-decoration-style:solid;text-decoration-color:#000;text-transform:none;block-progression:tb;isolation:auto;mix-blend-mode:normal" fill="#373748" d="m 16,1024.5098 c -3.464773,0 -6.2793132,2.844 -6.2792969,6.332 4.3e-5,3.4879 2.8145659,6.3301 6.2792969,6.3301 3.464731,0 6.279254,-2.8422 6.279297,-6.3301 1.6e-5,-3.488 -2.814524,-6.332 -6.279297,-6.332 z m 0,1 c 2.919608,0 5.279311,2.3798 5.279297,5.332 -3.7e-5,2.9522 -2.359725,5.3301 -5.279297,5.3301 -2.919572,0 -5.27926,-2.3779 -5.279297,-5.3301 -1.4e-5,-2.9522 2.35969,-5.332 5.279297,-5.332 z" color="#000" font-family="sans-serif" font-weight="400" overflow="visible"/></g></svg>