<svg xmlns="http://www.w3.org/2000/svg" width="32" height="32" viewBox="0 0 32 32"><path fill-rule="evenodd" d="m 11.311482,1021.3605 c -0.25895,10e-5 -0.46872,0.2099 -0.46875,0.4688 l 0,4.6856 c 3e-5,0.2589 0.2098,0.4687 0.46875,0.4687 l 1.41797,0 c 0.004,0.4701 0.004,0.9353 0.002,1.4004 l -0.35937,0 c -0.58691,0 -1.06055,0.4199 -1.06055,0.9393 0,0.5197 0.47364,0.9375 1.06055,0.9375 l 0.33008,0 0.60742,0 c -0.58692,0 -1.06055,-0.4178 -1.06055,-0.9375 0,-0.5195 0.47363,-0.9393 1.06055,-0.9393 l 0.35937,0 c 0.002,-0.4651 0.002,-0.9303 -0.002,-1.4004 -0.25895,0 -0.46873,-0.2099 -0.46875,-0.4687 l 0,-4.6857 c 0,-0.016 0.002,-0.031 0.004,-0.047 10e-4,-0.016 0.003,-0.032 0.006,-0.047 0.004,-0.015 0.007,-0.03 0.0117,-0.045 0.005,-0.015 0.01,-0.029 0.0156,-0.043 0.006,-0.014 0.0115,-0.028 0.0195,-0.041 0.007,-0.013 0.0174,-0.027 0.0254,-0.039 0.008,-0.013 0.0154,-0.025 0.0254,-0.037 0.01,-0.012 0.0206,-0.023 0.0312,-0.033 0.0106,-0.011 0.0217,-0.02 0.0332,-0.029 0.0113,-0.01 0.0397,-0.03 0.0527,-0.039 -0.0688,-0.04 -0.14337,-0.068 -0.22851,-0.068 l -1.88282,0 z m 3.74414,0 c -0.25895,10e-5 -0.47067,0.2099 -0.4707,0.4688 l 0,1.3984 -0.44922,0 0,3.2872 c 3e-5,0.2582 0.21071,0.4676 0.46875,0.4687 0.004,0.4701 0.004,0.9353 0.002,1.4004 l -0.35937,0 c -0.58691,0 -1.06055,0.4199 -1.06055,0.9394 0,0.5196 0.47364,0.9375 1.06055,0.9375 l 5.06836,0 0.31445,0 c 0.58691,0 1.0586,-0.4179 1.0586,-0.9375 0,-0.5195 -0.47169,-0.9394 -1.0586,-0.9394 l -0.34375,0 c -0.003,-0.465 -0.004,-0.9304 0,-1.4004 l 1.41797,0 c 0.25895,0 0.46872,-0.2098 0.46875,-0.4687 l 0,-4.6856 c -8e-5,-0.2589 -0.20984,-0.4687 -0.4688,-0.4688 l -1.86133,0 c -0.25968,10e-5 -0.46973,0.2111 -0.46875,0.4708 l 0.008,1.3964 -0.94922,0 0,-1.3984 c -2e-4,-0.2589 -0.20998,-0.4687 -0.46893,-0.4688 l -1.90821,0 z m -1.62304,0.074 c 0.042,0.017 0.083,0.06 0.12109,0.1055 -0.0341,-0.043 -0.0743,-0.077 -0.12109,-0.1055 z m 0.16797,0.1758 c 0.0195,0.034 0.0306,0.067 0.0391,0.1016 -0.01,-0.036 -0.0217,-0.069 -0.0391,-0.1016 z m 0.0605,0.2089 -0.004,1.4063 0.006,0 0,-1.3964 c 0,0 -0.002,-0.01 -0.002,-0.01 z m -1,9.379 c -0.153,4.6733 -0.62245,9.0056 -1.48242,12.6602 l 0.9375,0 c 0.85997,-3.6546 1.32942,-7.9868 1.48242,-12.6602 l -0.9375,0 z m 1.875,0 c -0.153,4.6733 -0.62245,9.0056 -1.48242,12.6602 l 7.8125,0 c -0.86349,-3.6553 -1.34906,-7.9875 -1.50977,-12.6602 l -4.82031,0 z m -3.58203,13.5977 c -4.8e-4,0 -8.9e-4,0 -0.002,0.01 -1.0300997,10e-4 -1.8749897,0.8445 -1.8749997,1.875 0,0.343 0.10095,0.66 0.26367,0.9375 l -0.25586,0 c -1.05835,0 -1.99405,0.7449 -1.99405,1.7578 l 0,0.2226 c 0,0.081 0.002,0.088 0.002,0.023 l -0.002,0.7286 0,1.0097 0.9375,0 0,-1.0097 0.002,-0.7285 c 0,0.065 -0.002,0.057 -0.002,-0.023 l 0,-0.2227 c 0,-1.0127 0.93562,-1.7617 1.9941397,-1.7617 l 0.25781,0 c -0.16273,-0.2775 -0.26367,-0.5945 -0.26367,-0.9375 10e-6,-1.0304 0.84295,-1.874 1.87305,-1.875 0.001,0 0.001,0 0.002,-0.01 l -0.9375,0 z m 1.875,0 c -10e-4,10e-4 -10e-4,0 -0.002,0.01 -1.0301,10e-4 -1.87304,0.8445 -1.87305,1.875 0,0.343 0.10095,0.66 0.26367,0.9375 l -0.25781,0 c -1.0585597,0 -1.9941397,0.749 -1.9941397,1.7617 l 0,0.2227 c 0,0.081 0.002,0.088 0.002,0.023 l -0.002,0.7284 0,1.0098 0.11914,0 13.8300797,0 1.99414,0 0,-1.545 c 4.1e-4,-0.093 -8e-5,-0.1511 0,-0.1913 l 0,0 c 10e-6,-0.01 0,-0.019 0,-0.023 l 0,-0.2227 c 0,-1.0127 -0.93553,-1.7617 -1.99414,-1.7617 l -0.19141,0 c 0.16271,-0.2775 0.26367,-0.5945 0.26367,-0.9375 0,-1.0309 -0.84405,-1.875 -1.875,-1.875 l -0.0195,0 c -4.8e-4,0 -8.9e-4,0 -0.002,-0.01 l -8.26172,0 z" transform="translate(0 -1020.362)"/></svg>