<svg xmlns="http://www.w3.org/2000/svg" data-name=" 1" viewBox="0 0 128 128"><path d="M127.76,42.28,111.84,13a2.14,2.14,0,0,0-.13-.19l-.06-.1h0a2.05,2.05,0,0,0-.65-.53l-.13-.05a2.67,2.67,0,0,0-.26-.09l-.16,0-.26,0h-27a2,2,0,0,0-1.92,1.46L77.48,27H72a2,2,0,0,0-1.92,1.45l-.78,2.72L54.45,12.74l-.2-.2a.46.46,0,0,1-.07-.07,1.67,1.67,0,0,0-.37-.24l-.08,0a1.75,1.75,0,0,0-.32-.12l-.14,0a1.54,1.54,0,0,0-.3,0H25.26a2,2,0,0,0-1.91,1.41L.09,88.41a.13.13,0,0,0,0,.06,1.59,1.59,0,0,0-.06.3s0,.09,0,.13a1.54,1.54,0,0,0,0,.43v0a2.22,2.22,0,0,0,.12.39.52.52,0,0,0,.06.13,2,2,0,0,0,.14.25.25.25,0,0,1,0,.07.46.46,0,0,0,.07.07.94.94,0,0,0,.09.12l23.67,25a2,2,0,0,0,1.45.62H52.89a1.89,1.89,0,0,0,.53-.08l.07,0a1.85,1.85,0,0,0,.45-.21l.08,0a1.7,1.7,0,0,0,.38-.33l0,0a1.77,1.77,0,0,0,.28-.43,0,0,0,0,1,0,0h0a2.17,2.17,0,0,0,.12-.36l3.78-16.69.8,1.15a2,2,0,0,0,1.65.87H71.12l12.51,15.49a2,2,0,0,0,1.55.74H111.6a2.08,2.08,0,0,0,.5-.07l.09,0a1.69,1.69,0,0,0,.43-.2l.07,0a1.93,1.93,0,0,0,.35-.29l0,0a1.91,1.91,0,0,0,.28-.4l0,0s0,0,0-.05a1.72,1.72,0,0,0,.16-.45L128,43.64A2.07,2.07,0,0,0,127.76,42.28ZM84.7,16h22.88l-5.7,25h-9L92,28.86A2,2,0,0,0,90,27H81.63Zm6.7,71H67.58l7.36-28.5A2,2,0,0,0,73,56H64a2,2,0,0,0-1.93,1.48L58.46,71H46.6l3.33-12.48A2,2,0,0,0,48,56H39a1.71,1.71,0,0,0-.55.09l-.1,0a1.77,1.77,0,0,0-.47.25l0,0a2.09,2.09,0,0,0-.31.29,1,1,0,0,0-.08.11l-.07.1a2.21,2.21,0,0,0-.24.52h0L33.43,70H22V65a2,2,0,0,0-1.72-2l-7.79-1.09L22.09,31H53.35L50.08,42.45A2,2,0,0,0,52,45h49ZM70.17,61l-.82-1h1.07Zm-5,.34L69,65.68,65.8,77.89l-3.63-5.27Zm-20-.61-.8-.69h1ZM30.82,79h-11l1.72-5H32.27ZM63.65,41h-9l2.25-7.88Zm9.86-10H88.14l.71,10H70.65ZM53.65,18.13,68,35.87l-.86,3L57.52,27.7a1.29,1.29,0,0,0-.17-.16.94.94,0,0,0-.1-.1,2.09,2.09,0,0,0-.76-.38l-.12,0a1.55,1.55,0,0,0-.31,0h-5.3ZM26.74,16h23.4L46.55,27H23.33ZM11.29,65.8l6.71.94v5.19l-2.9,8.42A2,2,0,0,0,17,83H29.66L28.5,87H4.71ZM26.53,112,6.65,91H29.12l19.23,21Zm25.26-2.17L32.23,88.48l7.83-26.94,4,3.44-2,7.5a.2.2,0,0,0,0,.07,1.45,1.45,0,0,0,0,.28A.77.77,0,0,0,42,73a2.19,2.19,0,0,0,0,.36.13.13,0,0,1,0,.06,1.87,1.87,0,0,0,.13.4l.07.12a1.39,1.39,0,0,0,.11.21L55.54,93.27ZM62.12,95.77,47.81,75H59l5.53,8L63.06,88.5a.34.34,0,0,1,0,.1,2.54,2.54,0,0,0,0,.29V89a2.45,2.45,0,0,0,0,.27l0,.15a1.43,1.43,0,0,0,.09.27l.05.14.16.26.06.09v0l4.46,5.51Zm24,16.23-17-21H92l15.62,21Zm24.39-2.79L95.15,88.55l15.71-68.94,13,24Z"/></svg>